<?xml version="1.0" encoding="utf-8"?>
<!-- Generator: Adobe Illustrator 18.0.0, SVG Export Plug-In . SVG Version: 6.00 Build 0)  -->
<!DOCTYPE svg PUBLIC "-//W3C//DTD SVG 1.1//EN" "http://www.w3.org/Graphics/SVG/1.1/DTD/svg11.dtd">
<svg version="1.1" id="Layer_1" xmlns="http://www.w3.org/2000/svg" xmlns:xlink="http://www.w3.org/1999/xlink" x="0px" y="0px"
	 viewBox="0 0 3080 952" enable-background="new 0 0 3080 952" xml:space="preserve">
<path fill="#695F3D" d="M131,263c0,0,249.3,150.4,475.5-6.7C606.4,256.2,401.2,87.1,131,263z"/>
<g>
	<linearGradient id="SVGID_1_" gradientUnits="userSpaceOnUse" x1="556.3605" y1="430.2783" x2="113.3624" y2="47.5836">
		<stop  offset="0" style="stop-color:#747573"/>
		<stop  offset="0.1084" style="stop-color:#E7E8E7"/>
		<stop  offset="0.3054" style="stop-color:#C5C6C4"/>
		<stop  offset="0.5025" style="stop-color:#FFFFFF"/>
		<stop  offset="0.6798" style="stop-color:#A7A9A6"/>
		<stop  offset="0.8571" style="stop-color:#DADADA"/>
		<stop  offset="1" style="stop-color:#686967"/>
	</linearGradient>
	<path fill="url(#SVGID_1_)" d="M286.3,171.8c-143.1,19.6-190.1,84.5-190.1,84.5l26.7,45.8l95.1,80L579.8,367l53.9-110.7
		c-7.4-18.7-39.2-36-75.3-50.3C472.1,171.9,378.2,159.2,286.3,171.8z M146,256.2c252.8-143.2,433.7,0,433.7,0
		C383.8,387.9,146,256.2,146,256.2z"/>
</g>
<linearGradient id="SVGID_2_" gradientUnits="userSpaceOnUse" x1="96.1755" y1="519.8702" x2="633.6877" y2="519.8702">
	<stop  offset="0" style="stop-color:#747573"/>
	<stop  offset="0.1084" style="stop-color:#E7E8E7"/>
	<stop  offset="0.3054" style="stop-color:#C5C6C4"/>
	<stop  offset="0.5025" style="stop-color:#FFFFFF"/>
	<stop  offset="0.6798" style="stop-color:#A7A9A6"/>
	<stop  offset="0.8571" style="stop-color:#DADADA"/>
	<stop  offset="1" style="stop-color:#686967"/>
</linearGradient>
<path fill="url(#SVGID_2_)" d="M96.2,256.2l55.7,466.2c0,0,187.9,137.4,438.4,0l43.5-466.2c0,0-58.3,86.1-279.2,80.9
	C354.5,337.1,145.8,332.8,96.2,256.2z"/>
<path fill="#E3B852" d="M193.5,277.6c0,0-53.8-94.7,73.6-102.8c0,0,104.3,6.2,94,139.5C361.1,314.3,258.2,307.8,193.5,277.6z"/>
<path fill="#E3B852" d="M385.8,314.3c0,0-14.6-96.1,93.6-110.3c34.8-4.6,76,21.6,78.9,57.5c0.2,2.5,0.3,5.1,0.2,7.8
	C558.6,269.4,501.5,314.1,385.8,314.3z"/>
<path fill="#E3B852" d="M311.6,190.3c0,0,10.6-50.9,54.2-47.3c31.6,2.6,58.1,27.7,61.1,59.3c0.9,9.8-0.1,20.8-4.9,32.5l-16.2,54.4
	c0,0-56.5,22.6-69.6-11.3L311.6,190.3z"/>
<path fill="#CDA547" d="M226,289.2c0,0-50.7-94.7,30.2-89.5c0,0,77.1,0.7,86.8,113C343,312.7,234.3,300,226,289.2z"/>
<path fill="#CDA547" d="M412.2,312.7c0,0-16.8-71,64.4-82c0,0,55.8-1.4,41.8,58.2C518.4,288.9,447.6,317,412.2,312.7z"/>
<g>
	<path fill="#F8E2A3" d="M260,297.6l-0.4-11.1l-1.1-0.7l-13.8,0.4c0-2.7,0.3-5.1,0.6-7.5c1.9-0.3,3.5-0.3,5.2-0.4
		c2.2-0.1,3.3-1.3,3.2-3.4l-1.2-31c-0.1-2.2-1.7-3.8-4.1-3.9l-1.4,0c-1.2,0-2.3,0.1-3.5,0.1c-1.2-2.3-1.3-4.4-1.4-6.5l6.4-0.6
		l7.6-0.2l1.3-1.3l-0.4-10.2c2.4-0.3,4.5-0.4,6.6-0.5l0.4,4.6l0.2,6.3l1.1,0.7c1.7-0.1,3.2-0.1,4.8-0.1l1-1.1l-0.4-10.4
		c2.3-0.4,4.3-0.4,6.3-0.5l0.7,5.4l0.2,5c0,1.2,0.7,1.3,1.5,1.4c4.6,0.3,8,1.1,11,2.7c4,2.1,5.6,5.1,6.2,7.3c0.9,3,0.5,6.2-1,8.8
		c-0.9,1.5-2.1,2.7-3.7,3.7l-0.4,0.1l-0.8,0.7c1.4,1,2.8,1.6,4,2.4c4,2.9,6.3,6.1,6.9,9.9c0.8,4.6-1.3,10.8-7.7,14.3
		c-3.5,1.9-7.6,2.9-12.6,3.1l-1.3,1.4l0.4,10.3c-2.4,0.3-4.4,0.4-6.4,0.5l-0.7-6l-0.2-5.1l-1.1-0.7c-1.6,0.1-3.1,0.1-4.6,0.1
		l-1.2,1.2l0.4,10.5c-2.4,0.4-4.5,0.5-6.6,0.6l-0.1,0L260,297.6z M273.3,261c-1.9,0-3.8,0.1-5.7,0.2l-1.9,0.4l0.2,9.7l0.2,4.4
		c0.1,1.9,0.3,2.1,2.3,2.1l3,0c2.4,0,5.2-0.1,8-0.7c2.4-0.5,4.1-1.3,5.5-2.4c2.1-1.8,3.3-4.4,2.9-6.8c-0.4-2.3-2-4.2-4.6-5.3
		c-1-0.4-2.1-0.8-3.2-1l-2.3-0.3C276.3,261,274.8,261,273.3,261z M271.8,239.5c-1.7,0-3.4,0.1-5.1,0.2l-1.9,1l0.6,13.6l1,0.6l5.4,0
		c2.6-0.1,5.5-0.4,8.2-1.9c1.7-1,3.1-2.6,3.5-4.5c0.4-1.6,0.2-3.3-0.7-4.8c-1.6-2.6-4.3-3.4-6.5-3.9
		C274.9,239.6,273.4,239.5,271.8,239.5z"/>
</g>
<g>
	<path fill="#F8E2A3" d="M462.3,302.9l0-3.7l-0.1-3.7l-5.9-0.8l-4.8,0.1l0.5-5.2c1.3-0.1,2.4-0.1,3.5-0.2c1.7-0.1,2.5-1,2.4-2.6
		l-0.8-22c-0.1-1.7-1.3-2.8-3-2.9l-3.3,0.1c-0.9-1.5-0.9-3-1-4.4l4.3-0.3l5.5-0.2l1-1.1l-0.3-7.2l4.5-0.2l0.3,7.3
		c2,0.8,3.1,0.8,4.2,0.8c0,0,0.1,0,0.1,0l0.7-4.5l-0.1-3.7c1.5-0.1,2.9-0.2,4.3-0.3l0.4,3.7l0.1,3.9l1.1,0.7
		c3.2,0.2,5.7,0.8,7.8,1.9c2.8,1.4,3.9,3.6,4.3,5.1c0.6,2.1,0.4,4.3-0.7,6.1c-0.6,1-1.5,1.9-2.6,2.6c0.3,1.5,1.2,1.9,2,2.5
		c2.8,2,4.4,4.3,4.8,6.9c0.5,3.2-0.9,7.6-5.4,10c-2.5,1.3-5.4,2-8.8,2.2l-0.4,0l-0.7,1.1l0.3,7.3l-4.4,0.2l-0.3-3.8l-0.1-3.7
		l-4.2-0.8l-0.8,4.7l0.1,3.7c-1.6,0.1-3.1,0.2-4.5,0.3H462.3L462.3,302.9z M471.6,277c-1.4,0-2.8,0.1-4.3,0.1l-1.3,1l0.4,9.4
		c0.1,1.4,0.2,1.6,1.7,1.6l2,0c1.9,0,3.9-0.1,5.9-0.5c1.7-0.4,2.9-0.9,3.9-1.7c1.5-1.3,2.4-3.2,2.1-4.9c-0.3-1.7-1.4-3.1-3.3-3.9
		c-0.7-0.3-1.5-0.5-2.3-0.7l-1.6-0.2C473.8,277,472.7,277,471.6,277z M470.6,261.8c-1.1,0-2.3,0.1-3.5,0.1l-0.4,0l-1.2,0.8l0.4,9.4
		l1.7,0.8l3,0c1.8-0.1,4-0.3,5.9-1.3c1.3-0.7,2.2-1.9,2.6-3.2c0.3-1.2,0.1-2.4-0.5-3.5c-1.1-1.8-3.1-2.5-4.6-2.8
		C472.8,261.8,471.7,261.8,470.6,261.8z"/>
</g>
<path fill="#CDA547" d="M338.5,195.4c0,0,8.7-47.5,50.4-16.8c0,0,27.2,26.1,0,71.9c0,0-6.9,8.9-12.8,15.4c-3.4,3.8-9.3,3.8-12.9,0.2
	C352.8,255.6,334.2,231.3,338.5,195.4z"/>
<g>
	<path fill="#F8E2A3" d="M360.9,242.2l-0.2-7.5l-6.8-0.7l-3.9,0.1l0.6-5.2c1.3-0.1,2.4-0.1,3.5-0.2c1.6-0.1,2.4-1,2.4-2.5l-0.8-22
		c-0.1-1.7-1.3-2.8-3-2.9c-0.4,0-2.8,0-3.5,0.1l-0.8-4.5l4.3-0.3l5.5-0.2l1-1.1l-0.3-7.2l4.5-0.2l0.3,7.3c2,0.8,3.1,0.8,4.1,0.8
		c0,0,0.1,0,0.1,0l0.7-3.8l-0.2-4.4l4.4-0.3l0.4,3.4l0.1,4.2l1.1,0.7c3.2,0.2,5.7,0.8,7.8,1.9c2.8,1.4,3.9,3.6,4.3,5.1
		c0.6,2.1,0.4,4.3-0.7,6.1c-0.6,1-1.5,1.9-2.6,2.6c0.5,1.6,1.3,2,2,2.5c2.8,2,4.4,4.3,4.8,6.9c0.5,3.2-0.9,7.6-5.4,10
		c-2.5,1.3-5.4,2-8.8,2.2l-1.1,1.1l0.3,7.3c-1.6,0.1-3,0.1-4.4,0.2l-0.4-5l-0.1-2.4l-4.1-0.8l-0.8,4.7l0.1,3.7
		c-1.6,0.1-3.1,0.2-4.5,0.3H360.9L360.9,242.2z M366.2,216.5l-1.3,0.3l0.2,9.8c0.1,1.7,0.3,1.9,1.8,1.9l2.1,0c1.8,0,3.8-0.1,5.8-0.5
		c1.7-0.4,2.9-0.9,3.9-1.7c1.5-1.3,2.4-3.2,2.1-4.9c-0.3-1.7-1.4-3.1-3.3-3.9c-0.7-0.3-1.5-0.5-2.3-0.7l-1.6-0.2
		c-1.1-0.1-2.2-0.2-3.3-0.2C369,216.3,366.2,216.5,366.2,216.5z M369.3,201.1c-1.2,0-2.4,0.1-3.6,0.1l-0.1,0.1l-1.4,0.7l0.4,9.3
		l1.4,0.8l3.2,0c1.9-0.1,4-0.3,5.9-1.3c1.3-0.7,2.2-1.9,2.6-3.2c0.3-1.2,0.1-2.4-0.5-3.5c-1.1-1.9-3.1-2.5-4.6-2.8
		C371.5,201.2,370.4,201.1,369.3,201.1z"/>
</g>
<g>
	<path fill="#686967" d="M364.5,789.4c-102.8,0-176.6-39-204.6-56.5c-7.6-4.7-12.5-12.6-13.6-21.6L93.2,261.4l3-5.2l58.4,454
		c0.8,6.5,4.3,12.1,9.7,15.5c44.1,27.7,204,109.3,411.7-0.4c6.3-3.3,10.7-9.9,11.4-17.2l46.3-451.9l4.2,5.2L595.7,709
		c-1,10-7,19.2-15.8,23.8C499.9,775,426.9,789.4,364.5,789.4z"/>
</g>
<path fill="#CDA547" d="M2290.3,592.5c0-25.4,19.1-42.9,46.4-42.9c26.8,0,45.4,17.1,45.9,42.9c0,24.5-18.5,42.5-46.9,42.5
	C2309.3,634.9,2290.3,616.9,2290.3,592.5z"/>
<g>
	<g>
		<path fill="#5F615E" d="M943.1,637.9c-94.7,0-153.5-50.6-153.5-132.1c0-82.3,66.8-137.6,166.3-137.6c22.6,0,47.3,3.4,65.7,9
			l-12.6,53.3c-13.4-4.5-29.7-6.8-48.8-6.8c-25.5,0-47.8,8.4-62.9,23.8c-14,14.2-21.3,33.3-21,55.1c0,47.1,34.5,78.8,85.7,78.8
			c19,0,35.3-2.4,49.7-7.3l9.5,52.9C1003.4,633.7,973.4,637.9,943.1,637.9z"/>
	</g>
	<g>
		<path fill="#5F615E" d="M1207.3,638.5c-89.6,0-149.9-53.5-149.9-133.2c0-83.6,61-137.6,155.3-137.6c88.2,0,147.4,53.3,147.4,132.7
			C1360.2,595.8,1283.4,638.5,1207.3,638.5z M1209.7,418.8c-48,0-65.1,45.4-65.1,84.3c0,51.2,25.5,84.3,65.1,84.3
			c38.4,0,63.2-33.3,63.2-84.8C1273,463.9,1256.4,418.8,1209.7,418.8z"/>
	</g>
	<g>
		<path fill="#5F615E" d="M1782.6,632.5V488.9c0-39.9-18.1-61.9-51-61.9c-22.9,0-42.1,12.5-51.3,33.6c-2.3,5.2-3.4,12.3-3.4,22.4
			v149.5h-84.2V455.1c0-30.8-1-57.1-2.2-80.9h72.3l4.3,37.1h7.7l1.3-1.8c13.9-20,44.5-41.3,88.5-41.3c65.1,0,102.4,40.4,102.4,110.8
			v153.4H1782.6z"/>
	</g>
	<g>
		<path fill="#5F615E" d="M2115.7,638.5c-26.9,0-63.7-7.1-86-41.2l-1.2-1.9h-6l-1.6,3.8l-3.3,33.3h-70.3c1.1-17.7,2.2-47.1,2.2-75.4
			V253.8h84.2v152.1h6.2l2.5-1.6c17.9-23.2,48.7-36,86.8-36c32.8,0,61.3,11.3,82.5,32.7c23.6,23.8,35.9,57.6,35.6,97.7
			C2247.3,594.7,2179.1,638.5,2115.7,638.5z M2093.8,423.7c-27.3,0-51.8,18.5-58.2,44c-1.3,5.3-1.9,10.7-1.9,16.3v39.2
			c0,5.8,0.7,11.1,2,15.8c7,24.9,30.9,42.3,58.2,42.3c42.6,0,68.1-29.7,68.1-79.4C2161.9,453.7,2135.8,423.7,2093.8,423.7z"/>
	</g>
	<g>
		<path fill="#5F615E" d="M2807.8,632.5V488.9c0-39.9-18.1-61.9-51-61.9c-22.9,0-42.1,12.5-51.3,33.6c-2.3,5.2-3.4,12.3-3.4,22.4
			v149.5h-84.2V455.1c0-30.8-1-57.1-2.2-80.9h72.3l4.3,37.1h7.7l1.3-1.8c13.9-20,44.5-41.3,88.5-41.3c65.1,0,102.4,40.4,102.4,110.8
			v153.4H2807.8z"/>
	</g>
	<g>
		<rect x="1430.2" y="258.7" fill="#5F615E" width="76" height="73.4"/>
	</g>
	<g>
		<rect x="1425.5" y="373.5" fill="#5F615E" width="80.7" height="257.2"/>
	</g>
	<g>
		<rect x="2473.9" y="258.7" fill="#5F615E" width="76" height="73.4"/>
	</g>
	<g>
		<rect x="2469.2" y="373.5" fill="#5F615E" width="80.7" height="257.2"/>
	</g>
</g>
</svg>
